<svg id="Capa_1" data-name="Capa 1" xmlns="http://www.w3.org/2000/svg" viewBox="0 0 135.74 36.77"><defs><style>.cls-1{fill:#8bb33b;}.cls-2{fill:#092130;}.cls-3{fill:#c75253;}.cls-4{fill:#8bb137;}.cls-5{fill:#9d182c;}.cls-6{fill:#397043;}.cls-7{fill:#fff;}</style></defs><title>logo-finanzas</title><path class="cls-1" d="M90.78,31.82v-.05a1.45,1.45,0,0,1,1.53-1.5,1.23,1.23,0,0,1,1.41,1.18H92.8a.43.43,0,0,0-.46-.42c-.35,0-.55.25-.55.73v0c0,.51.19.76.56.76a.47.47,0,0,0,.5-.47h.89c0,.72-.52,1.19-1.45,1.19a1.39,1.39,0,0,1-1.51-1.46" transform="translate(-1.54 -1.06)"/><path class="cls-1" d="M94,31.82v-.05a1.48,1.48,0,0,1,1.58-1.5,1.45,1.45,0,0,1,1.57,1.48v0a1.47,1.47,0,0,1-1.58,1.5A1.44,1.44,0,0,1,94,31.82m2.15,0v0c0-.49-.2-.76-.57-.76s-.57.26-.57.75v0c0,.49.19.76.57.76s.57-.27.57-.75" transform="translate(-1.54 -1.06)"/><path class="cls-1" d="M97.55,30.34h1v.46a1,1,0,0,1,1-.53c.56,0,.94.34.94,1.08v1.87h-1V31.55c0-.33-.13-.49-.42-.49s-.49.18-.49.55v1.61h-1Z" transform="translate(-1.54 -1.06)"/><path class="cls-1" d="M101.11,32.29V31h-.35v-.67h.35v-.6h1v.6h.57V31h-.57V32.2a.26.26,0,0,0,.29.3.79.79,0,0,0,.28,0v.74a1.76,1.76,0,0,1-.54.08.89.89,0,0,1-1-1" transform="translate(-1.54 -1.06)"/><path class="cls-1" d="M103.09,29.56a.54.54,0,1,1,.54.51.51.51,0,0,1-.54-.51m0,.78h1v2.88h-1Z" transform="translate(-1.54 -1.06)"/><path class="cls-1" d="M104.57,33.22h1c0,.21.17.37.53.37a.54.54,0,0,0,.61-.6v-.44a1,1,0,0,1-.89.53,1.25,1.25,0,0,1-1.23-1.38v-.05a1.26,1.26,0,0,1,1.23-1.38,1,1,0,0,1,.89.48v-.41h1V33c0,.85-.57,1.31-1.59,1.31s-1.43-.42-1.51-1.07m2.14-1.53v0c0-.39-.2-.65-.56-.65s-.57.26-.57.66v0c0,.4.21.65.56.65s.57-.25.57-.66" transform="translate(-1.54 -1.06)"/><path class="cls-1" d="M108.09,31.82v-.05a1.48,1.48,0,0,1,1.58-1.5,1.45,1.45,0,0,1,1.57,1.48v0a1.47,1.47,0,0,1-1.57,1.5,1.45,1.45,0,0,1-1.58-1.47m2.15,0v0c0-.49-.19-.76-.57-.76s-.57.26-.57.75v0c0,.49.19.76.57.76s.57-.27.57-.75" transform="translate(-1.54 -1.06)"/><polygon class="cls-2" points="50.86 28.23 52 28.23 52 29.73 53.29 29.73 53.29 28.23 54.42 28.23 54.42 32.16 53.29 32.16 53.29 30.61 52 30.61 52 32.16 50.86 32.16 50.86 28.23"/><path class="cls-2" d="M56.6,29.56a.54.54,0,1,1,.54.51.51.51,0,0,1-.54-.51m0,.78h1v2.88h-1Z" transform="translate(-1.54 -1.06)"/><path class="cls-2" d="M58.1,31.81v0c0-1,.54-1.51,1.22-1.51a1,1,0,0,1,.89.49V29.08h1v4.14h-1v-.47a1,1,0,0,1-.9.53c-.67,0-1.21-.47-1.21-1.47m2.13,0v0c0-.48-.2-.74-.56-.74s-.57.25-.57.75v0c0,.48.21.73.56.73s.57-.25.57-.74" transform="translate(-1.54 -1.06)"/><path class="cls-2" d="M61.6,32.42c0-.68.57-.94,1.53-.94h.28v-.06c0-.28-.07-.46-.39-.46a.35.35,0,0,0-.38.34h-.93c0-.69.59-1,1.38-1s1.29.32,1.29,1.08v1.87h-.95v-.34a1,1,0,0,1-.86.4.85.85,0,0,1-1-.86m1.81-.21V32h-.26c-.4,0-.58.07-.58.31s.12.27.34.27.5-.16.5-.41" transform="translate(-1.54 -1.06)"/><rect class="cls-2" x="63.42" y="28.02" width="0.98" height="4.14"/><path class="cls-2" d="M66.39,33.22h1c0,.21.17.37.53.37a.54.54,0,0,0,.61-.6v-.44a1,1,0,0,1-.89.53A1.24,1.24,0,0,1,66.4,31.7v-.05a1.26,1.26,0,0,1,1.22-1.38.94.94,0,0,1,.89.48v-.41h1V33c0,.85-.56,1.31-1.59,1.31s-1.43-.42-1.51-1.07m2.15-1.53v0c0-.39-.21-.65-.57-.65s-.57.26-.57.66v0c0,.4.21.65.57.65s.57-.25.57-.66" transform="translate(-1.54 -1.06)"/><path class="cls-2" d="M69.92,31.82v-.05a1.48,1.48,0,0,1,1.58-1.5,1.45,1.45,0,0,1,1.56,1.48v0a1.47,1.47,0,0,1-1.57,1.5,1.44,1.44,0,0,1-1.57-1.47m2.14,0v0c0-.49-.19-.76-.56-.76s-.58.26-.58.75v0c0,.49.2.76.58.76s.56-.27.56-.75" transform="translate(-1.54 -1.06)"/><path class="cls-2" d="M74.41,31.82v-.05A1.45,1.45,0,0,1,76,30.27a1.23,1.23,0,0,1,1.4,1.18h-.92A.42.42,0,0,0,76,31c-.35,0-.55.25-.55.73v0c0,.51.19.76.57.76a.48.48,0,0,0,.5-.47h.88c0,.72-.52,1.19-1.45,1.19a1.39,1.39,0,0,1-1.51-1.46" transform="translate(-1.54 -1.06)"/><path class="cls-2" d="M77.77,30.34h1v.58a.9.9,0,0,1,.93-.61v.91c-.6,0-.93.17-.93.63v1.37h-1Z" transform="translate(-1.54 -1.06)"/><path class="cls-2" d="M79.94,31.82v-.05a1.46,1.46,0,0,1,1.55-1.5A1.36,1.36,0,0,1,83,31.75V32h-2a.58.58,0,0,0,.6.6c.32,0,.46-.15.5-.34H83c-.08.65-.58,1-1.45,1a1.41,1.41,0,0,1-1.56-1.46M82,31.45c0-.34-.19-.53-.51-.53a.54.54,0,0,0-.55.53Z" transform="translate(-1.54 -1.06)"/><path class="cls-2" d="M83.22,31.82v-.05a1.44,1.44,0,0,1,1.53-1.5,1.24,1.24,0,0,1,1.41,1.18h-.93a.42.42,0,0,0-.46-.42c-.34,0-.55.25-.55.73v0c0,.51.2.76.57.76a.47.47,0,0,0,.5-.47h.88c0,.72-.51,1.19-1.44,1.19a1.38,1.38,0,0,1-1.51-1.46" transform="translate(-1.54 -1.06)"/><path class="cls-2" d="M86.42,31.82v-.05A1.47,1.47,0,0,1,88,30.27a1.37,1.37,0,0,1,1.47,1.48V32h-2a.58.58,0,0,0,.6.6c.33,0,.46-.15.5-.34h.93c-.09.65-.59,1-1.46,1a1.41,1.41,0,0,1-1.56-1.46m2.06-.37c0-.34-.19-.53-.51-.53a.55.55,0,0,0-.55.53Z" transform="translate(-1.54 -1.06)"/><path class="cls-2" d="M52.31,10h1.92c.05.53.27,1,1.11,1,.58,0,.9-.3.9-.74s-.26-.59-1.11-.72c-2-.25-2.66-.88-2.66-2.38,0-1.34,1.05-2.32,2.73-2.32s2.65.75,2.78,2.32H56.11a.82.82,0,0,0-.91-.8c-.54,0-.82.26-.82.64s.22.6,1.1.72c1.78.21,2.7.7,2.7,2.32a2.54,2.54,0,0,1-2.84,2.48c-2,0-3-.88-3-2.49" transform="translate(-1.54 -1.06)"/><path class="cls-2" d="M58.75,9.72V9.63a2.7,2.7,0,0,1,2.79-2.85,2.52,2.52,0,0,1,2.62,2.81v.49H60.53c0,.72.44,1.14,1.08,1.14a.79.79,0,0,0,.89-.65h1.66C64,11.8,63.1,12.5,61.55,12.5a2.61,2.61,0,0,1-2.8-2.78M62.44,9c0-.66-.33-1-.9-1s-.9.36-1,1Z" transform="translate(-1.54 -1.06)"/><path class="cls-2" d="M64.64,9.72V9.63a2.66,2.66,0,0,1,2.75-2.85A2.26,2.26,0,0,1,69.91,9H68.26c-.08-.51-.32-.79-.83-.79s-1,.46-1,1.38V9.7c0,.94.35,1.43,1,1.43a.87.87,0,0,0,.89-.9h1.59a2.28,2.28,0,0,1-2.59,2.27,2.55,2.55,0,0,1-2.71-2.78" transform="translate(-1.54 -1.06)"/><path class="cls-2" d="M70.66,6.92h1.76V8a1.63,1.63,0,0,1,1.67-1.16V8.59c-1.08,0-1.67.32-1.67,1.2v2.59H70.66Z" transform="translate(-1.54 -1.06)"/><path class="cls-2" d="M74.55,9.72V9.63a2.7,2.7,0,0,1,2.79-2.85A2.51,2.51,0,0,1,80,9.59v.49H76.33a1.07,1.07,0,0,0,1.08,1.14.79.79,0,0,0,.89-.65H80c-.16,1.23-1.06,1.93-2.61,1.93a2.61,2.61,0,0,1-2.8-2.78M78.24,9c0-.66-.33-1-.9-1s-.9.36-1,1Z" transform="translate(-1.54 -1.06)"/><path class="cls-2" d="M81,10.62V8.19h-.62V6.92H81V5.79h1.76V6.92h1V8.19h-1v2.25c0,.4.19.58.52.58a1.12,1.12,0,0,0,.5-.1v1.42a3.18,3.18,0,0,1-1,.16A1.64,1.64,0,0,1,81,10.62" transform="translate(-1.54 -1.06)"/><path class="cls-2" d="M84.26,10.86c0-1.28,1-1.78,2.73-1.78h.5V9c0-.53-.12-.87-.68-.87a.65.65,0,0,0-.7.65H84.45c.08-1.32,1.06-2,2.47-2s2.32.61,2.32,2.06v3.53H87.53v-.63A1.66,1.66,0,0,1,86,12.5a1.57,1.57,0,0,1-1.74-1.64m3.23-.39v-.34H87c-.7,0-1,.15-1,.6s.2.51.61.51a.8.8,0,0,0,.88-.77" transform="translate(-1.54 -1.06)"/><path class="cls-2" d="M90.25,6.92H92V8a1.62,1.62,0,0,1,1.66-1.16V8.59c-1.07,0-1.66.32-1.66,1.2v2.59H90.25Z" transform="translate(-1.54 -1.06)"/><path class="cls-2" d="M94.51,6.92h1.77v5.46H94.51Zm.73-2.35H97L96,6.3H94.72Z" transform="translate(-1.54 -1.06)"/><path class="cls-2" d="M97.07,10.86c0-1.28,1-1.78,2.74-1.78h.49V9c0-.53-.11-.87-.67-.87a.64.64,0,0,0-.7.65H97.27c.08-1.32,1.06-2,2.46-2s2.33.61,2.33,2.06v3.53h-1.72v-.63a1.63,1.63,0,0,1-1.52.76,1.57,1.57,0,0,1-1.75-1.64m3.23-.39v-.34h-.46c-.71,0-1,.15-1,.6s.19.51.61.51a.79.79,0,0,0,.87-.77" transform="translate(-1.54 -1.06)"/><path class="cls-2" d="M104.75,9.71V9.62c0-1.85,1-2.84,2.18-2.84a1.66,1.66,0,0,1,1.59.91V4.52h1.76v7.86h-1.76v-.89a1.74,1.74,0,0,1-1.6,1c-1.2,0-2.17-.91-2.17-2.79m3.82,0V9.59c0-.92-.36-1.41-1-1.41s-1,.47-1,1.42v.08c0,.92.39,1.39,1,1.39s1-.47,1-1.4" transform="translate(-1.54 -1.06)"/><path class="cls-2" d="M111.06,9.72V9.63a2.7,2.7,0,0,1,2.78-2.85,2.51,2.51,0,0,1,2.62,2.81v.49h-3.62c0,.72.44,1.14,1.07,1.14a.8.8,0,0,0,.9-.65h1.65c-.16,1.23-1,1.93-2.61,1.93a2.61,2.61,0,0,1-2.79-2.78M114.75,9c0-.66-.34-1-.91-1s-.89.36-1,1Z" transform="translate(-1.54 -1.06)"/><polygon class="cls-2" points="51.27 15.42 56.02 15.42 56.02 17.07 53.3 17.07 53.3 18.65 55.47 18.65 55.47 20.22 53.3 20.22 53.3 22.85 51.27 22.85 51.27 15.42"/><path class="cls-2" d="M58.21,17a1,1,0,0,1,1.94,0,1,1,0,0,1-1.94,0m.09,1.47h1.76v5.44H58.3Z" transform="translate(-1.54 -1.06)"/><path class="cls-2" d="M61.16,18.47h1.76v.88a1.79,1.79,0,0,1,1.69-1c1,0,1.68.65,1.68,2.05v3.53H64.53V20.75c0-.61-.23-.91-.74-.91s-.87.33-.87,1v3H61.16Z" transform="translate(-1.54 -1.06)"/><path class="cls-2" d="M67,22.4c0-1.27,1-1.77,2.73-1.77h.5V20.5c0-.52-.12-.86-.68-.86a.64.64,0,0,0-.7.64H67.2c.07-1.31,1-2,2.45-2S72,18.94,72,20.39v3.52H70.27v-.63a1.68,1.68,0,0,1-1.53.76A1.57,1.57,0,0,1,67,22.4M70.23,22v-.33h-.47c-.71,0-1,.14-1,.59s.2.51.61.51a.79.79,0,0,0,.88-.77" transform="translate(-1.54 -1.06)"/><path class="cls-2" d="M73,18.47h1.76v.88a1.82,1.82,0,0,1,1.69-1c1,0,1.69.65,1.69,2.05v3.53H76.35V20.75c0-.61-.22-.91-.73-.91s-.88.33-.88,1v3H73Z" transform="translate(-1.54 -1.06)"/><polygon class="cls-2" points="77.15 22.67 79.4 18.82 77.39 18.82 77.39 17.42 81.92 17.42 81.92 17.61 79.61 21.45 81.81 21.45 81.81 22.85 77.15 22.85 77.15 22.67"/><path class="cls-2" d="M83.82,22.4c0-1.27,1-1.77,2.74-1.77h.49V20.5c0-.52-.12-.86-.68-.86a.65.65,0,0,0-.7.64H84c.08-1.31,1-2,2.46-2s2.32.61,2.32,2.06v3.52H87.09v-.63a1.68,1.68,0,0,1-1.53.76,1.57,1.57,0,0,1-1.74-1.64M87.05,22v-.33h-.46c-.71,0-1,.14-1,.59s.2.51.61.51a.79.79,0,0,0,.88-.77" transform="translate(-1.54 -1.06)"/><path class="cls-2" d="M89.46,22.19h1.62a.63.63,0,0,0,.73.61c.43,0,.63-.18.63-.45s-.25-.38-1-.48c-1.38-.19-2-.62-2-1.75s1-1.79,2.2-1.79,2.16.46,2.27,1.76H92.41a.58.58,0,0,0-.66-.54c-.38,0-.58.17-.58.42s.24.37.87.45c1.42.19,2.11.58,2.11,1.75S93.24,24,91.82,24s-2.32-.65-2.36-1.85" transform="translate(-1.54 -1.06)"/><path class="cls-2" d="M97,16.48h2.68c1.93,0,2.82.9,2.82,2.48V19c0,1.56-1,2.4-2.73,2.4H99v2.5H97ZM99.55,20c.65,0,1-.32,1-.93V19c0-.63-.36-.89-1-.89H99V20Z" transform="translate(-1.54 -1.06)"/><path class="cls-2" d="M103.18,22V18.47h1.76v3.25c0,.61.23.91.73.91s.88-.33.88-1V18.47h1.76v5.44h-1.76v-.84a1.69,1.69,0,0,1-1.64,1c-1,0-1.73-.65-1.73-2m2.41-5.89h1.77l-1,1.72h-1.26Z" transform="translate(-1.54 -1.06)"/><path class="cls-2" d="M111.11,23.07v.84h-1.76V16.08h1.76v3.21a1.82,1.82,0,0,1,1.61-1c1.19,0,2.17,1,2.17,2.82v.08c0,1.87-1,2.81-2.19,2.81a1.67,1.67,0,0,1-1.59-1m2-1.84v-.08c0-1-.4-1.42-1-1.42s-1,.49-1,1.41v.08c0,.93.38,1.39,1,1.39s1-.49,1-1.38" transform="translate(-1.54 -1.06)"/><rect class="cls-2" x="114.18" y="15.02" width="1.75" height="7.83"/><path class="cls-2" d="M118.53,17a.94.94,0,0,1,1-1,1,1,0,0,1,1,1,.94.94,0,0,1-1,.95.93.93,0,0,1-1-.95m.09,1.47h1.76v5.44h-1.76Z" transform="translate(-1.54 -1.06)"/><path class="cls-2" d="M121.19,21.26v-.08a2.66,2.66,0,0,1,2.75-2.85,2.26,2.26,0,0,1,2.52,2.24H124.8c-.07-.52-.31-.79-.82-.79s-1,.46-1,1.38v.08c0,1,.35,1.44,1,1.44a.88.88,0,0,0,.89-.91h1.59A2.28,2.28,0,0,1,123.9,24a2.55,2.55,0,0,1-2.71-2.78" transform="translate(-1.54 -1.06)"/><path class="cls-2" d="M127,22.4c0-1.27,1-1.77,2.73-1.77h.49V20.5c0-.52-.11-.86-.67-.86a.64.64,0,0,0-.7.64h-1.65c.07-1.31,1.05-2,2.46-2s2.31.61,2.31,2.06v3.52h-1.7v-.63a1.68,1.68,0,0,1-1.53.76A1.56,1.56,0,0,1,127,22.4m3.22-.39v-.33h-.46c-.7,0-1,.14-1,.59s.2.51.61.51a.79.79,0,0,0,.87-.77" transform="translate(-1.54 -1.06)"/><path class="cls-2" d="M132.59,22.19h1.63c.06.39.22.61.73.61s.63-.18.63-.45-.25-.38-1-.48c-1.37-.19-2-.62-2-1.75s1-1.79,2.21-1.79,2.15.46,2.27,1.76h-1.59a.58.58,0,0,0-.66-.54c-.39,0-.58.17-.58.42s.23.37.86.45c1.43.19,2.12.58,2.12,1.75S136.38,24,135,24s-2.31-.65-2.36-1.85" transform="translate(-1.54 -1.06)"/><polygon class="cls-3" points="15.09 6.65 8.33 6.65 3.92 33.38 30.8 33.38 31.91 26.74 25.19 26.74 26.3 20.02 19.58 20.02 18.47 26.7 11.74 26.7 15.09 6.65"/><polygon class="cls-4" points="31.91 26.74 38.66 26.74 43.08 0.01 16.19 0.01 15.09 6.65 21.81 6.65 20.69 13.37 27.42 13.37 28.52 6.7 35.25 6.7 31.91 26.74"/><polygon class="cls-5" points="3.92 33.38 8.33 6.65 4.19 10.04 0 36.77 26.88 36.77 30.8 33.39 3.92 33.38"/><polygon class="cls-6" points="15.1 6.65 16.19 0 12.06 3.39 11.54 6.65 15.1 6.65"/><polygon class="cls-6" points="31.91 26.74 31.34 30.12 34.75 30.12 38.66 26.74 31.91 26.74"/><polygon class="cls-7" points="15.09 6.72 21.77 6.72 20.66 13.42 27.36 13.42 28.46 6.77 35.17 6.77 31.84 26.74 25.14 26.74 26.25 20.04 19.55 20.04 18.45 26.7 11.74 26.7 15.09 6.72"/></svg>